<?xml version="1.0" encoding="iso-8859-1"?>
<!-- Generator: Adobe Illustrator 19.0.0, SVG Export Plug-In . SVG Version: 6.00 Build 0)  -->
<svg version="1.1" id="Capa_1" xmlns="http://www.w3.org/2000/svg" xmlns:xlink="http://www.w3.org/1999/xlink" x="0px" y="0px"
	 viewBox="0 0 410 410" style="enable-background:new 0 0 410 410;" xml:space="preserve">
<g id="XMLID_1651_">
	<path id="XMLID_1653_" style="fill:#78B9EB;" d="M130,132.5h-30H70l-30,70H0v20h30v30H0v40h30c0-24.853,20.147-45,45-45
		s45,20.147,45,45h50v-160H130z M155,202.5H72.639l17.143-40H155V202.5z"/>
	<path id="XMLID_1656_" style="fill:#5A8BB0;" d="M320,202.5l-50-70h-30h-30h-40v160h120c0-24.853,20.147-45,45-45
		c17.667,0,32.947,10.185,40.311,25H410v-10h-20l-10-30h30v-10L320,202.5z M185,202.5v-40h69.561l28.571,40H185z"/>
	<path id="XMLID_1659_" style="fill:#78B9EB;" d="M380,292.5h30v-20h-34.689C378.307,278.525,380,285.314,380,292.5z"/>
	<path id="XMLID_1660_" style="fill:#616064;" d="M52.5,292.5c0-12.427,10.073-22.5,22.5-22.5v-22.5c-24.853,0-45,20.147-45,45
		s20.147,45,45,45V315C62.573,315,52.5,304.927,52.5,292.5z"/>
	<path id="XMLID_1661_" style="fill:#565659;" d="M75,247.5V270c12.427,0,22.5,10.073,22.5,22.5S87.427,315,75,315v22.5
		c24.852,0,45-20.147,45-45S99.852,247.5,75,247.5z"/>
	<path id="XMLID_1662_" style="fill:#CDCDD0;" d="M52.5,292.5c0,12.427,10.073,22.5,22.5,22.5v-45
		C62.573,270,52.5,280.073,52.5,292.5z"/>
	<path id="XMLID_1663_" style="fill:#ACABB1;" d="M75,315c12.427,0,22.5-10.073,22.5-22.5S87.427,270,75,270V315z"/>
	<path id="XMLID_1664_" style="fill:#616064;" d="M312.5,292.5c0-12.427,10.073-22.5,22.5-22.5v-22.5c-24.853,0-45,20.147-45,45
		s20.147,45,45,45V315C322.573,315,312.5,304.927,312.5,292.5z"/>
	<path id="XMLID_1665_" style="fill:#565659;" d="M335,247.5V270c12.427,0,22.5,10.073,22.5,22.5S347.427,315,335,315v22.5
		c24.852,0,45-20.147,45-45c0-7.186-1.693-13.975-4.689-20C367.947,257.685,352.667,247.5,335,247.5z"/>
	<path id="XMLID_1666_" style="fill:#CDCDD0;" d="M312.5,292.5c0,12.427,10.073,22.5,22.5,22.5v-45
		C322.573,270,312.5,280.073,312.5,292.5z"/>
	<path id="XMLID_1667_" style="fill:#ACABB1;" d="M335,315c12.427,0,22.5-10.073,22.5-22.5S347.427,270,335,270V315z"/>
	<polygon id="XMLID_1668_" style="fill:#FFFFFF;" points="72.639,202.5 155,202.5 155,162.5 89.782,162.5 	"/>
	<polygon id="XMLID_1669_" style="fill:#FFFFFF;" points="185,162.5 185,202.5 283.133,202.5 254.561,162.5 	"/>
	<rect id="XMLID_1670_" y="222.5" style="fill:#FF5023;" width="30" height="30"/>
	<polygon id="XMLID_1671_" style="fill:#FF9811;" points="390,262.5 410,262.5 410,232.5 380,232.5 	"/>
	<rect id="XMLID_1672_" x="240" y="72.5" style="fill:#BF3C1A;" width="30" height="40"/>
	<rect id="XMLID_1673_" x="170" y="72.5" style="fill:#BF3C1A;" width="40" height="40"/>
	<rect id="XMLID_1674_" x="130" y="72.5" style="fill:#FF5023;" width="40" height="40"/>
	<rect id="XMLID_1675_" x="70" y="72.5" style="fill:#FF5023;" width="30" height="40"/>
	<rect id="XMLID_1676_" x="100" y="72.5" style="fill:#FF9811;" width="30" height="40"/>
	<rect id="XMLID_1677_" x="210" y="72.5" style="fill:#FF9811;" width="30" height="40"/>
	<rect id="XMLID_1678_" x="100" y="112.5" style="fill:#565659;" width="30" height="20"/>
	<rect id="XMLID_1679_" x="210" y="112.5" style="fill:#565659;" width="30" height="20"/>
</g>
<g>
</g>
<g>
</g>
<g>
</g>
<g>
</g>
<g>
</g>
<g>
</g>
<g>
</g>
<g>
</g>
<g>
</g>
<g>
</g>
<g>
</g>
<g>
</g>
<g>
</g>
<g>
</g>
<g>
</g>
</svg>
